<svg width="690" height="48" viewBox="0 0 690 48" fill="none" xmlns="http://www.w3.org/2000/svg">
<path d="M33.768 12.8799H28.504C27.944 10.1919 26.9734 8.23191 25.592 6.99991C23.8 5.35725 21.1867 4.53591 17.752 4.53591C13.5707 4.53591 10.3414 6.17858 8.06404 9.46391C6.08538 12.3386 5.09604 16.1092 5.09604 20.7759C5.09604 26.0399 6.42138 30.1279 9.07204 33.0399C11.424 35.5412 14.448 36.7919 18.144 36.7919C22.6614 36.7919 25.7787 35.1306 27.496 31.8079C28.28 30.2772 28.896 28.2426 29.344 25.7039H34.608C33.376 36.1199 27.9067 41.3279 18.2 41.3279C12.9734 41.3279 8.84804 39.7972 5.82404 36.7359C1.94138 32.8159 4.21107e-05 27.5519 4.21107e-05 20.9439C4.21107e-05 14.5226 1.86671 9.23991 5.60004 5.09591C8.66138 1.69858 12.88 -8.91685e-05 18.256 -8.91685e-05C26.992 -8.91685e-05 32.1627 4.29325 33.768 12.8799ZM52.1912 11.3119C56.5218 11.3119 59.8258 12.8239 62.1032 15.8479C64.1192 18.4612 65.1272 22.0079 65.1272 26.4879C65.1272 31.4906 63.8205 35.2986 61.2072 37.9119C58.9672 40.1892 55.9432 41.3279 52.1352 41.3279C47.7298 41.3279 44.3698 39.8532 42.0552 36.9039C40.0392 34.3279 39.0312 30.8559 39.0312 26.4879C39.0312 21.4106 40.3565 17.5092 43.0072 14.7839C45.2845 12.4692 48.3458 11.3119 52.1912 11.3119ZM52.1912 15.5119C49.5778 15.5119 47.5245 16.5012 46.0312 18.4799C44.5378 20.4212 43.7912 23.0906 43.7912 26.4879C43.7912 30.0346 44.6312 32.7412 46.3112 34.6079C47.7672 36.2506 49.7085 37.0719 52.1352 37.0719C54.7112 37.0719 56.7085 36.1386 58.1272 34.2719C59.5832 32.4052 60.3112 29.8106 60.3112 26.4879C60.3112 22.8292 59.4898 20.0292 57.8472 18.0879C56.4285 16.3706 54.5432 15.5119 52.1912 15.5119ZM71.5055 11.9279H75.7615V16.7999C78.0761 13.1412 81.2495 11.3119 85.2815 11.3119C88.0815 11.3119 90.3028 12.0212 91.9455 13.4399C93.5881 14.8212 94.4095 16.6879 94.4095 19.0399V40.7119H89.8735V20.8879C89.8735 19.1706 89.3321 17.8079 88.2495 16.7999C87.2041 15.7919 85.7668 15.2879 83.9375 15.2879C81.5481 15.2879 79.6441 16.1652 78.2255 17.9199C76.8068 19.6746 76.0975 22.0079 76.0975 24.9199V40.7119H71.5055V11.9279ZM102.076 11.9279H106.332V16.7999C108.646 13.1412 111.82 11.3119 115.852 11.3119C118.652 11.3119 120.873 12.0212 122.516 13.4399C124.158 14.8212 124.98 16.6879 124.98 19.0399V40.7119H120.444V20.8879C120.444 19.1706 119.902 17.8079 118.82 16.7999C117.774 15.7919 116.337 15.2879 114.508 15.2879C112.118 15.2879 110.214 16.1652 108.796 17.9199C107.377 19.6746 106.668 22.0079 106.668 24.9199V40.7119H102.076V11.9279ZM156.95 27.6639H135.726C135.763 30.1279 136.286 32.0879 137.294 33.5439C138.899 35.8959 141.214 37.0719 144.238 37.0719C147.971 37.0719 150.491 35.2986 151.798 31.7519H156.39C155.793 34.7759 154.411 37.1279 152.246 38.8079C150.081 40.4879 147.355 41.3279 144.07 41.3279C139.702 41.3279 136.361 39.8346 134.046 36.8479C131.993 34.2346 130.966 30.7812 130.966 26.4879C130.966 21.5226 132.31 17.6586 134.998 14.8959C137.35 12.5066 140.393 11.3119 144.126 11.3119C146.851 11.3119 149.241 11.9652 151.294 13.2719C153.385 14.5786 154.878 16.3706 155.774 18.6479C156.558 20.5892 156.95 23.5386 156.95 27.4959V27.6639ZM152.022 23.9119C152.022 21.4106 151.275 19.3946 149.782 17.8639C148.326 16.2959 146.441 15.5119 144.126 15.5119C141.774 15.5119 139.851 16.2772 138.358 17.8079C136.902 19.3012 136.081 21.3359 135.894 23.9119H152.022ZM185.224 21.5599H180.632C180.072 17.5279 177.795 15.5119 173.8 15.5119C171.299 15.5119 169.339 16.5012 167.92 18.4799C166.502 20.4586 165.792 23.2026 165.792 26.7119C165.792 30.1839 166.632 32.8346 168.312 34.6639C169.731 36.2692 171.635 37.0719 174.024 37.0719C177.87 37.0719 180.166 34.9812 180.912 30.7999H185.56C185.262 34.3839 183.974 37.0906 181.696 38.9199C179.718 40.5252 177.123 41.3279 173.912 41.3279C169.694 41.3279 166.408 39.8346 164.056 36.8479C162.04 34.2719 161.032 30.8932 161.032 26.7119C161.032 21.7092 162.358 17.7892 165.008 14.9519C167.286 12.5252 170.235 11.3119 173.856 11.3119C178.038 11.3119 181.174 12.7119 183.264 15.5119C184.347 16.9679 185 18.9839 185.224 21.5599ZM201.98 11.9279V15.6239H196.1V34.7759C196.1 35.4479 196.324 36.0266 196.772 36.5119C197.258 36.9599 197.874 37.1839 198.62 37.1839C199.33 37.1839 200.412 37.0159 201.868 36.6799L202.372 40.7119C200.058 41.1226 198.303 41.3279 197.108 41.3279C193.412 41.3279 191.564 39.8159 191.564 36.7919V15.6239H187.644V11.9279H191.564V6.04791L196.1 3.97591V11.9279H201.98ZM239.526 40.7119H234.15L222.726 7.11191V40.7119H217.91V0.615913H224.966L236.894 35.5039L248.542 0.615913H255.654V40.7119H250.782V7.11191L239.526 40.7119ZM274.715 11.3119C279.045 11.3119 282.349 12.8239 284.627 15.8479C286.643 18.4612 287.651 22.0079 287.651 26.4879C287.651 31.4906 286.344 35.2986 283.731 37.9119C281.491 40.1892 278.467 41.3279 274.659 41.3279C270.253 41.3279 266.893 39.8532 264.579 36.9039C262.563 34.3279 261.555 30.8559 261.555 26.4879C261.555 21.4106 262.88 17.5092 265.531 14.7839C267.808 12.4692 270.869 11.3119 274.715 11.3119ZM274.715 15.5119C272.101 15.5119 270.048 16.5012 268.555 18.4799C267.061 20.4212 266.315 23.0906 266.315 26.4879C266.315 30.0346 267.155 32.7412 268.835 34.6079C270.291 36.2506 272.232 37.0719 274.659 37.0719C277.235 37.0719 279.232 36.1386 280.651 34.2719C282.107 32.4052 282.835 29.8106 282.835 26.4879C282.835 22.8292 282.013 20.0292 280.371 18.0879C278.952 16.3706 277.067 15.5119 274.715 15.5119ZM293.973 11.9279H298.229V17.1919C299.909 13.2346 302.56 11.2559 306.181 11.2559C306.629 11.2559 307.17 11.3119 307.805 11.4239V16.1279C304.818 16.1652 302.765 16.5946 301.645 17.4159C299.592 18.9092 298.565 21.6906 298.565 25.7599V40.7119H293.973V11.9279ZM336.653 27.6639H315.429C315.467 30.1279 315.989 32.0879 316.997 33.5439C318.603 35.8959 320.917 37.0719 323.941 37.0719C327.675 37.0719 330.195 35.2986 331.501 31.7519H336.093C335.496 34.7759 334.115 37.1279 331.949 38.8079C329.784 40.4879 327.059 41.3279 323.773 41.3279C319.405 41.3279 316.064 39.8346 313.749 36.8479C311.696 34.2346 310.669 30.7812 310.669 26.4879C310.669 21.5226 312.013 17.6586 314.701 14.8959C317.053 12.5066 320.096 11.3119 323.829 11.3119C326.555 11.3119 328.944 11.9652 330.997 13.2719C333.088 14.5786 334.581 16.3706 335.477 18.6479C336.261 20.5892 336.653 23.5386 336.653 27.4959V27.6639ZM331.725 23.9119C331.725 21.4106 330.979 19.3946 329.485 17.8639C328.029 16.2959 326.144 15.5119 323.829 15.5119C321.477 15.5119 319.555 16.2772 318.061 17.8079C316.605 19.3012 315.784 21.3359 315.597 23.9119H331.725ZM344.824 40.9359C344.824 40.9359 344.805 40.9546 344.768 40.9919H344.712C343.965 40.9919 343.33 40.7492 342.808 40.2639C342.322 39.7412 342.061 39.1066 342.024 38.3599C342.024 37.7999 342.154 37.2772 342.416 36.7919C342.901 35.8959 343.685 35.4479 344.768 35.4479C345.701 35.4479 346.466 35.8212 347.064 36.5679C347.661 37.3146 347.96 38.2852 347.96 39.4799C347.96 42.2052 346.728 44.9866 344.264 47.8239H343.2L341.856 46.7599C342.64 45.7519 343.33 44.6132 343.928 43.3439C344.338 42.5599 344.637 41.7572 344.824 40.9359ZM387.191 28.6719H371.735L367.479 40.7119H362.047L376.327 0.615913H382.935L396.991 40.7119H391.335L387.191 28.6719ZM385.735 24.3599L379.575 6.15991L373.023 24.3599H385.735ZM423.662 21.5599H419.07C418.51 17.5279 416.233 15.5119 412.238 15.5119C409.737 15.5119 407.777 16.5012 406.358 18.4799C404.939 20.4586 404.23 23.2026 404.23 26.7119C404.23 30.1839 405.07 32.8346 406.75 34.6639C408.169 36.2692 410.073 37.0719 412.462 37.0719C416.307 37.0719 418.603 34.9812 419.35 30.7999H423.998C423.699 34.3839 422.411 37.0906 420.134 38.9199C418.155 40.5252 415.561 41.3279 412.35 41.3279C408.131 41.3279 404.846 39.8346 402.494 36.8479C400.478 34.2719 399.47 30.8932 399.47 26.7119C399.47 21.7092 400.795 17.7892 403.446 14.9519C405.723 12.5252 408.673 11.3119 412.294 11.3119C416.475 11.3119 419.611 12.7119 421.702 15.5119C422.785 16.9679 423.438 18.9839 423.662 21.5599ZM429.162 0.615913H433.698V15.9599C435.079 14.2426 436.46 13.0479 437.842 12.3759C439.223 11.6666 440.94 11.3119 442.994 11.3119C445.794 11.3119 447.996 12.0212 449.602 13.4399C451.207 14.8212 452.01 16.7252 452.01 19.1519V40.7119H447.474V20.9999C447.474 18.9839 446.858 17.5092 445.626 16.5759C444.468 15.7172 443.106 15.2879 441.538 15.2879C439.186 15.2879 437.282 16.1652 435.826 17.9199C434.407 19.6746 433.698 22.0079 433.698 24.9199V40.7119H429.162V0.615913ZM464.044 11.9279V40.7119H459.508V11.9279H464.044ZM461.86 0.671912C462.644 0.671912 463.297 0.951912 463.82 1.51191C464.38 2.03458 464.66 2.66925 464.66 3.41591C464.66 4.19991 464.38 4.87191 463.82 5.43191C463.297 5.95458 462.644 6.21591 461.86 6.21591C461.113 6.21591 460.46 5.95458 459.9 5.43191C459.377 4.87191 459.116 4.19991 459.116 3.41591C459.116 2.66925 459.377 2.03458 459.9 1.51191C460.46 0.951912 461.113 0.671912 461.86 0.671912ZM496.231 27.6639H475.007C475.045 30.1279 475.567 32.0879 476.575 33.5439C478.181 35.8959 480.495 37.0719 483.519 37.0719C487.253 37.0719 489.773 35.2986 491.079 31.7519H495.671C495.074 34.7759 493.693 37.1279 491.527 38.8079C489.362 40.4879 486.637 41.3279 483.351 41.3279C478.983 41.3279 475.642 39.8346 473.327 36.8479C471.274 34.2346 470.247 30.7812 470.247 26.4879C470.247 21.5226 471.591 17.6586 474.279 14.8959C476.631 12.5066 479.674 11.3119 483.407 11.3119C486.133 11.3119 488.522 11.9652 490.575 13.2719C492.666 14.5786 494.159 16.3706 495.055 18.6479C495.839 20.5892 496.231 23.5386 496.231 27.4959V27.6639ZM491.303 23.9119C491.303 21.4106 490.557 19.3946 489.063 17.8639C487.607 16.2959 485.722 15.5119 483.407 15.5119C481.055 15.5119 479.133 16.2772 477.639 17.8079C476.183 19.3012 475.362 21.3359 475.175 23.9119H491.303ZM514.314 40.7119H509.33L499.194 11.9279H504.402L512.018 35.2239L520.194 11.9279H525.346L514.314 40.7119ZM554.309 27.6639H533.085C533.123 30.1279 533.645 32.0879 534.653 33.5439C536.259 35.8959 538.573 37.0719 541.597 37.0719C545.331 37.0719 547.851 35.2986 549.157 31.7519H553.749C553.152 34.7759 551.771 37.1279 549.605 38.8079C547.44 40.4879 544.715 41.3279 541.429 41.3279C537.061 41.3279 533.72 39.8346 531.405 36.8479C529.352 34.2346 528.325 30.7812 528.325 26.4879C528.325 21.5226 529.669 17.6586 532.357 14.8959C534.709 12.5066 537.752 11.3119 541.485 11.3119C544.211 11.3119 546.6 11.9652 548.653 13.2719C550.744 14.5786 552.237 16.3706 553.133 18.6479C553.917 20.5892 554.309 23.5386 554.309 27.4959V27.6639ZM549.381 23.9119C549.381 21.4106 548.635 19.3946 547.141 17.8639C545.685 16.2959 543.8 15.5119 541.485 15.5119C539.133 15.5119 537.211 16.2772 535.717 17.8079C534.261 19.3012 533.44 21.3359 533.253 23.9119H549.381ZM592.753 40.7119H587.377L575.953 7.11191V40.7119H571.137V0.615913H578.193L590.121 35.5039L601.769 0.615913H608.881V40.7119H604.009V7.11191L592.753 40.7119ZM627.941 11.3119C632.272 11.3119 635.576 12.8239 637.853 15.8479C639.869 18.4612 640.877 22.0079 640.877 26.4879C640.877 31.4906 639.571 35.2986 636.957 37.9119C634.717 40.1892 631.693 41.3279 627.885 41.3279C623.48 41.3279 620.12 39.8532 617.805 36.9039C615.789 34.3279 614.781 30.8559 614.781 26.4879C614.781 21.4106 616.107 17.5092 618.757 14.7839C621.035 12.4692 624.096 11.3119 627.941 11.3119ZM627.941 15.5119C625.328 15.5119 623.275 16.5012 621.781 18.4799C620.288 20.4212 619.541 23.0906 619.541 26.4879C619.541 30.0346 620.381 32.7412 622.061 34.6079C623.517 36.2506 625.459 37.0719 627.885 37.0719C630.461 37.0719 632.459 36.1386 633.877 34.2719C635.333 32.4052 636.061 29.8106 636.061 26.4879C636.061 22.8292 635.24 20.0292 633.597 18.0879C632.179 16.3706 630.293 15.5119 627.941 15.5119ZM647.199 11.9279H651.455V17.1919C653.135 13.2346 655.786 11.2559 659.407 11.2559C659.855 11.2559 660.397 11.3119 661.031 11.4239V16.1279C658.045 16.1652 655.991 16.5946 654.871 17.4159C652.818 18.9092 651.791 21.6906 651.791 25.7599V40.7119H647.199V11.9279ZM689.88 27.6639H668.656C668.693 30.1279 669.216 32.0879 670.224 33.5439C671.829 35.8959 674.144 37.0719 677.168 37.0719C680.901 37.0719 683.421 35.2986 684.728 31.7519H689.32C688.722 34.7759 687.341 37.1279 685.176 38.8079C683.01 40.4879 680.285 41.3279 677 41.3279C672.632 41.3279 669.29 39.8346 666.976 36.8479C664.922 34.2346 663.896 30.7812 663.896 26.4879C663.896 21.5226 665.24 17.6586 667.928 14.8959C670.28 12.5066 673.322 11.3119 677.056 11.3119C679.781 11.3119 682.17 11.9652 684.224 13.2719C686.314 14.5786 687.808 16.3706 688.704 18.6479C689.488 20.5892 689.88 23.5386 689.88 27.4959V27.6639ZM684.952 23.9119C684.952 21.4106 684.205 19.3946 682.712 17.8639C681.256 16.2959 679.37 15.5119 677.056 15.5119C674.704 15.5119 672.781 16.2772 671.288 17.8079C669.832 19.3012 669.01 21.3359 668.824 23.9119H684.952Z" fill="url(#paint0_linear_43_384)"/>
<defs>
<linearGradient id="paint0_linear_43_384" x1="344.825" y1="-6.28809" x2="344.825" y2="49.7119" gradientUnits="userSpaceOnUse">
<stop stop-color="#F3F3F4"/>
<stop offset="1" stop-color="#71717A"/>
</linearGradient>
</defs>
</svg>
